<svg width="35" height="35" viewBox="0 0 35 35" fill="none" xmlns="http://www.w3.org/2000/svg">
<path d="M19.4615 6.63317C19.4615 5.54819 18.585 4.67163 17.5 4.67163C16.415 4.67163 15.5385 5.54819 15.5385 6.63317V15.4601H6.71154C5.62656 15.4601 4.75 16.3367 4.75 17.4216C4.75 18.5066 5.62656 19.3832 6.71154 19.3832H15.5385V28.2101C15.5385 29.2951 16.415 30.1716 17.5 30.1716C18.585 30.1716 19.4615 29.2951 19.4615 28.2101V19.3832H28.2885C29.3734 19.3832 30.25 18.5066 30.25 17.4216C30.25 16.3367 29.3734 15.4601 28.2885 15.4601H19.4615V6.63317Z" fill="#E0E0E0"/>
</svg>
