<svg width="107" height="59" viewBox="0 0 107 59" fill="none" xmlns="http://www.w3.org/2000/svg">
<path d="M55.4615 9.63317C55.4615 8.54819 54.585 7.67163 53.5 7.67163C52.415 7.67163 51.5385 8.54819 51.5385 9.63317V18.4601H42.7115C41.6266 18.4601 40.75 19.3367 40.75 20.4216C40.75 21.5066 41.6266 22.3832 42.7115 22.3832H51.5385V31.2101C51.5385 32.2951 52.415 33.1716 53.5 33.1716C54.585 33.1716 55.4615 32.2951 55.4615 31.2101V22.3832H64.2885C65.3734 22.3832 66.25 21.5066 66.25 20.4216C66.25 19.3367 65.3734 18.4601 64.2885 18.4601H55.4615V9.63317Z" fill="#E0E0E0"/>
<path d="M38.66 53.4216V53.3416L41.9133 43.0216H44.8733L48.14 53.3416V53.4216H46.2067L43.5 44.475H43.18L40.4467 53.4216H38.66ZM41.06 50.6083L41.5 49.1416H45.1667L45.6067 50.6083H41.06ZM51.7513 53.595C51.049 53.595 50.4579 53.4216 49.9779 53.075C49.5068 52.7194 49.1468 52.2261 48.8979 51.595C48.6579 50.9639 48.5379 50.235 48.5379 49.4083C48.5379 48.5727 48.6579 47.8439 48.8979 47.2216C49.1468 46.5994 49.5068 46.115 49.9779 45.7683C50.4579 45.4216 51.0446 45.2483 51.7379 45.2483C52.2713 45.2483 52.7068 45.3461 53.0446 45.5416C53.3824 45.7372 53.6446 46.0039 53.8313 46.3416H54.1513V42.755H55.9513V53.4216H54.3113V52.3816H53.9913C53.8224 52.7105 53.5557 52.995 53.1913 53.235C52.8357 53.475 52.3557 53.595 51.7513 53.595ZM52.1913 52.235C52.7957 52.235 53.2757 51.9816 53.6312 51.475C53.9868 50.9594 54.1646 50.275 54.1646 49.4216C54.1646 48.5683 53.9868 47.8883 53.6312 47.3816C53.2757 46.8661 52.7957 46.6083 52.1913 46.6083C51.6224 46.6083 51.1824 46.8483 50.8713 47.3283C50.5601 47.8083 50.4046 48.5061 50.4046 49.4216C50.4046 50.3372 50.5601 51.035 50.8713 51.515C51.1824 51.995 51.6224 52.235 52.1913 52.235ZM60.7513 53.595C60.049 53.595 59.4579 53.4216 58.9779 53.075C58.5068 52.7194 58.1468 52.2261 57.8979 51.595C57.6579 50.9639 57.5379 50.235 57.5379 49.4083C57.5379 48.5727 57.6579 47.8439 57.8979 47.2216C58.1468 46.5994 58.5068 46.115 58.9779 45.7683C59.4579 45.4216 60.0446 45.2483 60.7379 45.2483C61.2713 45.2483 61.7068 45.3461 62.0446 45.5416C62.3824 45.7372 62.6446 46.0039 62.8313 46.3416H63.1513V42.755H64.9513V53.4216H63.3113V52.3816H62.9913C62.8224 52.7105 62.5557 52.995 62.1913 53.235C61.8357 53.475 61.3557 53.595 60.7513 53.595ZM61.1913 52.235C61.7957 52.235 62.2757 51.9816 62.6312 51.475C62.9868 50.9594 63.1646 50.275 63.1646 49.4216C63.1646 48.5683 62.9868 47.8883 62.6312 47.3816C62.2757 46.8661 61.7957 46.6083 61.1913 46.6083C60.6224 46.6083 60.1824 46.8483 59.8713 47.3283C59.5601 47.8083 59.4046 48.5061 59.4046 49.4216C59.4046 50.3372 59.5601 51.035 59.8713 51.515C60.1824 51.995 60.6224 52.235 61.1913 52.235Z" fill="#E0E0E0"/>
</svg>
