<svg width="1662" height="77" viewBox="0 0 1662 77" fill="none" xmlns="http://www.w3.org/2000/svg">
<path fill-rule="evenodd" clip-rule="evenodd" d="M101.437 50.9052L207.801 25.4606L309.17 50.9052L415.533 25.4606L516.902 50.9052L623.266 25.4606L724.635 50.9052L830.998 25.4606L932.367 50.9052L1038.73 25.4606L1140.1 50.9052L1246.46 25.4606L1347.83 50.9052L1454.2 25.4606L1555.56 50.9052L1661.93 25.4606L1662 25.4786V50.9052L1661.93 50.9228L1555.56 77L1454.2 50.9228L1347.83 77L1246.46 50.9228L1140.1 77L1038.73 50.9228L932.367 77L830.998 50.9228L724.635 77L623.266 50.9228L516.902 77L415.533 50.9228L309.17 77L207.801 50.9228L101.437 77L0 50.9052L7.00003e-07 25.4435L101.437 50.9052Z" fill="#7938CB"/>
<path fill-rule="evenodd" clip-rule="evenodd" d="M101.437 25.4618L207.801 0.0171568L309.17 25.4618L415.533 0.0171587L516.902 25.4618L623.266 0.0171587L724.635 25.4618L830.998 0.0171587L932.367 25.4618L1038.73 0.0171587L1140.1 25.4618L1246.46 0.0171587L1347.83 25.4618L1454.2 0.0171587L1555.56 25.4618L1661.93 0.0171587L1662 0.0351255V25.4618L1661.93 25.4793L1555.56 51.5565L1454.2 25.4793L1347.83 51.5565L1246.46 25.4793L1140.1 51.5565L1038.73 25.4793L932.367 51.5565L830.998 25.4793L724.635 51.5565L623.266 25.4793L516.902 51.5565L415.533 25.4793L309.17 51.5565L207.801 25.4793L101.437 51.5565L0 25.4617L7.00003e-07 0L101.437 25.4618Z" fill="#EC1414"/>
<path fill-rule="evenodd" clip-rule="evenodd" d="M101.437 38.1835L207.801 12.7389L309.17 38.1835L415.533 12.7389L516.902 38.1835L623.266 12.7389L724.635 38.1835L830.998 12.7389L932.367 38.1835L1038.73 12.7389L1140.1 38.1835L1246.46 12.7389L1347.83 38.1835L1454.2 12.7389L1555.56 38.1835L1661.93 12.7389L1662 12.7569V38.1835L1661.93 38.2011L1555.56 64.2783L1454.2 38.2011L1347.83 64.2783L1246.46 38.2011L1140.1 64.2783L1038.73 38.2011L932.367 64.2783L830.998 38.2011L724.635 64.2783L623.266 38.2011L516.902 64.2783L415.533 38.2011L309.17 64.2783L207.801 38.2011L101.437 64.2783L0 38.1835L7.00003e-07 12.7217L101.437 38.1835Z" fill="var(--bg-color-elements)"/>
</svg>
