<svg width="3281" height="32" viewBox="0 0 3281 32" fill="none" xmlns="http://www.w3.org/2000/svg">
<path d="M205.067 0.0106489L100.103 15.8036L6.90795e-07 0L0 15.8036L100.103 32L205.067 15.8145L305.103 32L410.067 15.8145L510.103 32L615.067 15.8145L715.103 32L820.067 15.8145L920.103 32L1025.07 15.8145L1125.1 32L1230.07 15.8145L1330.1 32L1435.07 15.8145L1535.1 32L1640.07 15.8145L1740.1 32L1845.07 15.8145L1945.1 32L2050.07 15.8145L2150.1 32L2255.07 15.8145L2355.1 32L2460.07 15.8145L2560.1 32L2665.07 15.8145L2765.1 32L2870.07 15.8145L2970.1 32L3075.07 15.8145L3175.1 32L3280.14 15.8036V8.96687e-06L3175.1 15.8036L3075.07 0.0106501L2970.1 15.8036L2870.07 0.0106501L2765.1 15.8036L2665.07 0.0106501L2560.1 15.8036L2460.07 0.0106501L2355.1 15.8036L2255.07 0.0106501L2150.1 15.8036L2050.07 0.0106501L1945.1 15.8036L1845.07 0.0106501L1740.1 15.8036L1640.07 0.0106501L1535.1 15.8036L1435.07 0.0106501L1330.1 15.8036L1230.07 0.0106501L1125.1 15.8036L1025.07 0.0106501L920.103 15.8036L820.067 0.0106501L715.103 15.8036L615.067 0.0106501L510.103 15.8036L410.067 0.0106501L305.103 15.8036L205.067 0.0106489Z" fill="#B63176"/>
</svg>
