<svg width="28" height="28" viewBox="0 0 28 28" fill="none" xmlns="http://www.w3.org/2000/svg">
<path d="M16.8 18.2C17.1967 18.2 17.5408 18.0542 17.8325 17.7625C18.1242 17.4708 18.27 17.1267 18.27 16.73C18.27 16.3333 18.1242 15.9892 17.8325 15.6975C17.5408 15.4058 17.1967 15.26 16.8 15.26C16.4033 15.26 16.0592 15.4058 15.7675 15.6975C15.4758 15.9892 15.33 16.3333 15.33 16.73C15.33 17.1267 15.4758 17.4708 15.7675 17.7625C16.0592 18.0542 16.4033 18.2 16.8 18.2ZM15.75 13.72H17.85C17.85 13.0433 17.92 12.5475 18.06 12.2325C18.2 11.9175 18.5267 11.5033 19.04 10.99C19.74 10.29 20.2067 9.72417 20.44 9.2925C20.6733 8.86083 20.79 8.35333 20.79 7.77C20.79 6.72 20.4225 5.8625 19.6875 5.1975C18.9525 4.5325 17.99 4.2 16.8 4.2C15.8433 4.2 15.0092 4.46833 14.2975 5.005C13.5858 5.54167 13.09 6.25333 12.81 7.14L14.7 7.91C14.91 7.32667 15.1958 6.88917 15.5575 6.5975C15.9192 6.30583 16.3333 6.16 16.8 6.16C17.36 6.16 17.815 6.3175 18.165 6.6325C18.515 6.9475 18.69 7.37333 18.69 7.91C18.69 8.23667 18.5967 8.54583 18.41 8.8375C18.2233 9.12917 17.8967 9.49667 17.43 9.94C16.66 10.6167 16.1875 11.1475 16.0125 11.5325C15.8375 11.9175 15.75 12.6467 15.75 13.72ZM8.4 22.4C7.63 22.4 6.97083 22.1258 6.4225 21.5775C5.87417 21.0292 5.6 20.37 5.6 19.6V2.8C5.6 2.03 5.87417 1.37083 6.4225 0.8225C6.97083 0.274167 7.63 0 8.4 0H25.2C25.97 0 26.6292 0.274167 27.1775 0.8225C27.7258 1.37083 28 2.03 28 2.8V19.6C28 20.37 27.7258 21.0292 27.1775 21.5775C26.6292 22.1258 25.97 22.4 25.2 22.4H8.4ZM8.4 19.6H25.2V2.8H8.4V19.6ZM2.8 28C2.03 28 1.37083 27.7258 0.8225 27.1775C0.274167 26.6292 0 25.97 0 25.2V5.6H2.8V25.2H22.4V28H2.8Z" fill="#FFFFFF"/>
</svg>
