<svg width="49" height="48" viewBox="0 0 49 48" fill="none" xmlns="http://www.w3.org/2000/svg">
<rect x="0.5" width="48" height="47.4217" rx="23.7108" fill="url(#paint0_linear_1_635)"/>
<path d="M5.41504 22.196C5.41504 20.9002 6.47666 19.8498 7.78624 19.8498H10.9478V30.0169H7.78624C6.47666 30.0169 5.41504 28.9665 5.41504 27.6706L5.41504 22.196Z" fill="#FFC8C8"/>
<path d="M38.2167 19.8498H41.3783C42.6879 19.8498 43.7495 20.9002 43.7495 22.196L43.7495 27.6706C43.7495 28.9665 42.6879 30.0169 41.3783 30.0169H38.2167L38.2167 19.8498Z" fill="#FFC8C8"/>
<path d="M27.1511 6.74979C27.1511 7.64967 26.6785 8.44032 25.9655 8.892C25.5662 9.14494 25.0915 9.29158 24.5823 9.29158C24.073 9.29158 23.5983 9.14494 23.1991 8.892C22.4861 8.44032 22.0135 7.64967 22.0135 6.74979C22.0135 5.346 23.1636 4.20801 24.5823 4.20801C26.001 4.20801 27.1511 5.346 27.1511 6.74979Z" fill="#FFC8C8"/>
<path d="M25.9655 15.3528L25.9655 8.892C25.5662 9.14494 25.0915 9.29158 24.5823 9.29158C24.073 9.29158 23.5983 9.14494 23.1991 8.892L23.1991 15.3528H25.9655Z" fill="#FFC8C8"/>
<path fill-rule="evenodd" clip-rule="evenodd" d="M15.0975 16.7214L34.0671 16.7214C35.5949 16.7214 36.8335 17.9469 36.8335 19.4587V30.6035C36.8335 32.1152 35.5949 33.3408 34.0671 33.3408H15.0975C13.5696 33.3408 12.3311 32.1152 12.3311 30.6035V19.4587C12.3311 17.9469 13.5696 16.7214 15.0975 16.7214ZM18.2591 27.2796C19.5686 27.2796 20.6303 26.2291 20.6303 24.9333C20.6303 23.6375 19.5686 22.5871 18.2591 22.5871C16.9495 22.5871 15.8879 23.6375 15.8879 24.9333C15.8879 26.2291 16.9495 27.2796 18.2591 27.2796ZM28.5343 24.9333C28.5343 26.2291 29.5959 27.2796 30.9055 27.2796V26.1065C31.0124 25.223 31.3198 25.0233 32.0911 24.9333H33.2767C33.2767 23.6375 32.2151 22.5871 30.9055 22.5871C29.5959 22.5871 28.5343 23.6375 28.5343 24.9333Z" fill="#FFC8C8"/>
<defs>
<linearGradient id="paint0_linear_1_635" x1="24.5" y1="-9.28183e-08" x2="45.2572" y2="35.2615" gradientUnits="userSpaceOnUse">
<stop stop-color="#EC1414"/>
<stop offset="1" stop-color="#7D50DD"/>
</linearGradient>
</defs>
</svg>
