<svg width="194" height="149" viewBox="0 0 194 149" fill="none" xmlns="http://www.w3.org/2000/svg">
<path d="M0 92C0 85.3726 5.37258 80 12 80H28V132H12C5.37258 132 0 126.627 0 120V92Z" fill="#FFC8C8"/>
<path d="M166 80H182C188.627 80 194 85.3726 194 92V120C194 126.627 188.627 132 182 132H166V80Z" fill="#FFC8C8"/>
<path d="M110 13C110 17.6024 107.608 21.6462 104 23.9564C101.979 25.25 99.5773 26 97 26C94.4227 26 92.0206 25.25 90 23.9564C86.3917 21.6462 84 17.6024 84 13C84 5.8203 89.8203 0 97 0C104.18 0 110 5.8203 110 13Z" fill="#FFC8C8"/>
<path d="M104 57V23.9564C101.979 25.25 99.5773 26 97 26C94.4227 26 92.0206 25.25 90 23.9564V57H104Z" fill="#FFC8C8"/>
<path fill-rule="evenodd" clip-rule="evenodd" d="M49 64H145C152.732 64 159 70.268 159 78V135C159 142.732 152.732 149 145 149H49C41.268 149 35 142.732 35 135V78C35 70.268 41.268 64 49 64ZM65 118C71.6274 118 77 112.627 77 106C77 99.3726 71.6274 94 65 94C58.3726 94 53 99.3726 53 106C53 112.627 58.3726 118 65 118ZM117 106C117 112.627 122.373 118 129 118V112C129.541 107.482 131.097 106.46 135 106H141C141 99.3726 135.627 94 129 94C122.373 94 117 99.3726 117 106Z" fill="#FFC8C8"/>
</svg>
