<svg width="366" height="366" viewBox="0 0 366 366" fill="none" xmlns="http://www.w3.org/2000/svg">
<g filter="url(#filter0_f_1_971)">
<rect x="70" y="70" width="226" height="226" rx="78" fill="url(#paint0_linear_1_971)"/>
</g>
<path d="M105 180.347C105 174.991 109.335 170.649 114.682 170.649H127.592V212.672H114.682C109.335 212.672 105 208.33 105 202.974V180.347Z" fill="#FFC8C8"/>
<path d="M238.94 170.649H251.85C257.197 170.649 261.532 174.991 261.532 180.347V202.974C261.532 208.33 257.197 212.672 251.85 212.672H238.94V170.649Z" fill="#FFC8C8"/>
<path d="M193.756 116.506C193.756 120.225 191.826 123.493 188.914 125.36C187.284 126.405 185.346 127.011 183.266 127.011C181.187 127.011 179.248 126.405 177.618 125.36C174.707 123.493 172.777 120.225 172.777 116.506C172.777 110.703 177.473 106 183.266 106C189.059 106 193.756 110.703 193.756 116.506Z" fill="#FFC8C8"/>
<path d="M188.914 152.063V125.36C187.284 126.405 185.346 127.011 183.266 127.011C181.187 127.011 179.248 126.405 177.618 125.36V152.063H188.914Z" fill="#FFC8C8"/>
<path fill-rule="evenodd" clip-rule="evenodd" d="M144.537 157.72H221.996C228.235 157.72 233.292 162.785 233.292 169.033V215.096C233.292 221.344 228.235 226.41 221.996 226.41H144.537C138.298 226.41 133.24 221.344 133.24 215.096V169.033C133.24 162.785 138.298 157.72 144.537 157.72ZM157.446 201.358C162.794 201.358 167.129 197.016 167.129 191.66C167.129 186.305 162.794 181.963 157.446 181.963C152.099 181.963 147.764 186.305 147.764 191.66C147.764 197.016 152.099 201.358 157.446 201.358ZM199.404 191.66C199.404 197.016 203.739 201.358 209.086 201.358V196.509C209.523 192.858 210.778 192.032 213.927 191.66H218.768C218.768 186.305 214.433 181.963 209.086 181.963C203.739 181.963 199.404 186.305 199.404 191.66Z" fill="#FFC8C8"/>
<defs>
<filter id="filter0_f_1_971" x="0" y="0" width="366" height="366" filterUnits="userSpaceOnUse" color-interpolation-filters="sRGB">
<feFlood flood-opacity="0" result="BackgroundImageFix"/>
<feBlend mode="normal" in="SourceGraphic" in2="BackgroundImageFix" result="shape"/>
<feGaussianBlur stdDeviation="35" result="effect1_foregroundBlur_1_971"/>
</filter>
<linearGradient id="paint0_linear_1_971" x1="183" y1="70" x2="282.502" y2="236.993" gradientUnits="userSpaceOnUse">
<stop stop-color="#EC1414"/>
<stop offset="1" stop-color="#7D50DD"/>
</linearGradient>
</defs>
</svg>
