<svg width="29" height="29" viewBox="0 0 29 29" fill="none" xmlns="http://www.w3.org/2000/svg">
<path d="M10.6044 28.5882L10.0377 24.0549C9.73075 23.9368 9.44151 23.7952 9.16999 23.6299C8.89846 23.4646 8.63283 23.2875 8.37311 23.0986L4.15853 24.8695L0.262695 18.1403L3.91061 15.3778C3.887 15.2125 3.8752 15.0531 3.8752 14.8997V13.9434C3.8752 13.79 3.887 13.6306 3.91061 13.4653L0.262695 10.7028L4.15853 3.97363L8.37311 5.74447C8.63283 5.55558 8.90436 5.37849 9.1877 5.21322C9.47103 5.04794 9.75436 4.90627 10.0377 4.78822L10.6044 0.254883L18.396 0.254883L18.9627 4.78822C19.2696 4.90627 19.5589 5.04794 19.8304 5.21322C20.1019 5.37849 20.3676 5.55558 20.6273 5.74447L24.8419 3.97363L28.7377 10.7028L25.0898 13.4653C25.1134 13.6306 25.1252 13.79 25.1252 13.9434V14.8997C25.1252 15.0531 25.1016 15.2125 25.0544 15.3778L28.7023 18.1403L24.8064 24.8695L20.6273 23.0986C20.3676 23.2875 20.096 23.4646 19.8127 23.6299C19.5294 23.7952 19.246 23.9368 18.9627 24.0549L18.396 28.5882H10.6044ZM13.0835 25.7549H15.8814L16.3773 22.0007C17.1092 21.8118 17.788 21.5344 18.4137 21.1684C19.0394 20.8025 19.612 20.3597 20.1314 19.8403L23.6377 21.2924L25.0189 18.884L21.9731 16.582C22.0912 16.2514 22.1738 15.9031 22.221 15.5372C22.2683 15.1712 22.2919 14.7993 22.2919 14.4215C22.2919 14.0438 22.2683 13.6719 22.221 13.3059C22.1738 12.94 22.0912 12.5917 21.9731 12.2611L25.0189 9.95905L23.6377 7.55072L20.1314 9.03822C19.612 8.49516 19.0394 8.04065 18.4137 7.67467C17.788 7.3087 17.1092 7.03127 16.3773 6.84238L15.9169 3.08822H13.1189L12.6231 6.84238C11.8912 7.03127 11.2123 7.3087 10.5867 7.67467C9.96096 8.04065 9.38839 8.48335 8.86895 9.0028L5.3627 7.55072L3.98145 9.95905L7.02728 12.2257C6.90922 12.5799 6.82658 12.934 6.77936 13.2882C6.73214 13.6424 6.70853 14.0202 6.70853 14.4215C6.70853 14.7993 6.73214 15.1653 6.77936 15.5195C6.82658 15.8736 6.90922 16.2278 7.02728 16.582L3.98145 18.884L5.3627 21.2924L8.86895 19.8049C9.38839 20.3479 9.96096 20.8025 10.5867 21.1684C11.2123 21.5344 11.8912 21.8118 12.6231 22.0007L13.0835 25.7549ZM14.571 19.3799C15.9405 19.3799 17.1092 18.8959 18.0773 17.9278C19.0453 16.9597 19.5294 15.791 19.5294 14.4215C19.5294 13.0521 19.0453 11.8834 18.0773 10.9153C17.1092 9.94724 15.9405 9.46322 14.571 9.46322C13.178 9.46322 12.0033 9.94724 11.0471 10.9153C10.0908 11.8834 9.6127 13.0521 9.6127 14.4215C9.6127 15.791 10.0908 16.9597 11.0471 17.9278C12.0033 18.8959 13.178 19.3799 14.571 19.3799Z" fill="white"/>
</svg>
