<svg width="107" height="59" viewBox="0 0 107 59" fill="none" xmlns="http://www.w3.org/2000/svg">
<rect x="-1.5" y="0.421631" width="110" height="58" rx="8" fill="#17141D"/>
<path d="M43.5833 33.1716C42.8042 33.1716 42.1372 32.8942 41.5823 32.3393C41.0274 31.7845 40.75 31.1175 40.75 30.3383V10.505C40.75 9.7258 41.0274 9.05878 41.5823 8.50392C42.1372 7.94906 42.8042 7.67163 43.5833 7.67163H63.4167C64.1958 7.67163 64.8628 7.94906 65.4177 8.50392C65.9726 9.05878 66.25 9.7258 66.25 10.505V30.3383C66.25 31.1175 65.9726 31.7845 65.4177 32.3393C64.8628 32.8942 64.1958 33.1716 63.4167 33.1716H43.5833ZM43.5833 30.3383H63.4167V10.505H43.5833V30.3383ZM49.3562 26.4425L53.5 23.9279L57.6437 26.4425L56.5458 21.732L60.2292 18.5445L55.3771 18.155L53.5 13.6925L51.6229 18.155L46.7708 18.5445L50.4542 21.732L49.3562 26.4425Z" fill="white"/>
<path d="M17.8854 52.1716V43.2783H14.6188V41.7716H23.0188V43.2783H19.7521V52.1716H17.8854ZM26.5306 52.3716C25.6151 52.3716 24.9395 52.0872 24.504 51.5183C24.0684 50.9494 23.8506 50.2027 23.8506 49.2783V44.1716H25.6506V48.945C25.6506 49.5583 25.7617 50.0339 25.984 50.3716C26.2062 50.7094 26.5573 50.8783 27.0373 50.8783C27.6328 50.8783 28.0906 50.6472 28.4106 50.185C28.7306 49.7227 28.8906 49.1583 28.8906 48.4916V44.1716H30.6906V52.1716H29.0773V50.9716H28.7573C28.6151 51.3894 28.3617 51.7272 27.9973 51.985C27.6328 52.2427 27.144 52.3716 26.5306 52.3716ZM36.0598 52.1716V41.7716H40.0865C41.4198 41.7716 42.3887 42.0516 42.9931 42.6116C43.6065 43.1627 43.9131 43.905 43.9131 44.8383C43.9131 45.7716 43.6065 46.5183 42.9931 47.0783C42.3887 47.6383 41.4198 47.9183 40.0865 47.9183H37.9131V52.1716H36.0598ZM37.9131 46.465H39.8865C40.6065 46.465 41.1442 46.3405 41.4998 46.0916C41.8553 45.8427 42.0331 45.4294 42.0331 44.8516C42.0331 44.2739 41.8553 43.8561 41.4998 43.5983C41.1442 43.3405 40.6065 43.2116 39.8865 43.2116H37.9131V46.465ZM45.426 52.1716V44.1716H47.0527V45.585H47.3727C47.426 45.345 47.5238 45.1094 47.666 44.8783C47.8083 44.6472 48.026 44.4605 48.3194 44.3183C48.6216 44.1672 49.0305 44.0916 49.546 44.0916H49.8927V45.745H49.3994C48.626 45.745 48.0705 45.945 47.7327 46.345C47.3949 46.745 47.226 47.3539 47.226 48.1716V52.1716H45.426ZM54.2354 52.3716C53.0176 52.3716 52.0888 51.9939 51.4488 51.2383C50.8088 50.4739 50.4888 49.4472 50.4888 48.1583C50.4888 47.305 50.631 46.5672 50.9154 45.945C51.1999 45.3227 51.6176 44.8383 52.1688 44.4916C52.7287 44.145 53.4088 43.9716 54.2088 43.9716C55.3554 43.9716 56.231 44.3316 56.8354 45.0516C57.4399 45.7627 57.7421 46.8072 57.7421 48.185V48.6116H52.2487C52.2932 49.3405 52.4799 49.9272 52.8088 50.3716C53.1465 50.8161 53.6221 51.0383 54.2354 51.0383C54.6976 51.0383 55.0665 50.905 55.3421 50.6383C55.6265 50.3716 55.8221 50.0294 55.9288 49.6116H57.6488C57.551 50.1272 57.3643 50.5939 57.0888 51.0116C56.8221 51.4205 56.4532 51.7494 55.9821 51.9983C55.511 52.2472 54.9288 52.3716 54.2354 52.3716ZM52.2621 47.4116H55.9821C55.9465 46.7272 55.7732 46.1983 55.4621 45.825C55.1599 45.4516 54.7376 45.265 54.1954 45.265C53.6354 45.265 53.191 45.4472 52.8621 45.8116C52.5332 46.1761 52.3332 46.7094 52.2621 47.4116ZM53.5154 43.3716V43.2916L54.5021 40.9716H56.1821V41.0516L54.9554 43.3716H53.5154ZM59.781 52.1716V45.4916H58.6344V44.1716H59.781V43.6783C59.781 43.2427 59.8566 42.8605 60.0077 42.5316C60.1588 42.2027 60.4077 41.945 60.7544 41.7583C61.1099 41.5716 61.5944 41.4783 62.2077 41.4783C62.4299 41.4783 62.6388 41.4916 62.8344 41.5183V42.825C62.7277 42.7983 62.5855 42.785 62.4077 42.785C62.061 42.785 61.8255 42.865 61.701 43.025C61.5855 43.185 61.5277 43.4161 61.5277 43.7183V44.1716H62.8344V45.4916H61.5277V52.1716H59.781ZM67.501 52.3716C66.2833 52.3716 65.3544 51.9939 64.7144 51.2383C64.0744 50.4739 63.7544 49.4472 63.7544 48.1583C63.7544 47.305 63.8966 46.5672 64.181 45.945C64.4655 45.3227 64.8833 44.8383 65.4344 44.4916C65.9944 44.145 66.6744 43.9716 67.4744 43.9716C68.621 43.9716 69.4966 44.3316 70.101 45.0516C70.7055 45.7627 71.0077 46.8072 71.0077 48.185V48.6116H65.5144C65.5588 49.3405 65.7455 49.9272 66.0744 50.3716C66.4122 50.8161 66.8877 51.0383 67.501 51.0383C67.9633 51.0383 68.3322 50.905 68.6077 50.6383C68.8922 50.3716 69.0877 50.0294 69.1944 49.6116H70.9144C70.8166 50.1272 70.6299 50.5939 70.3544 51.0116C70.0877 51.4205 69.7188 51.7494 69.2477 51.9983C68.7766 52.2472 68.1944 52.3716 67.501 52.3716ZM65.5277 47.4116H69.2477C69.2122 46.7272 69.0388 46.1983 68.7277 45.825C68.4255 45.4516 68.0033 45.265 67.461 45.265C66.901 45.265 66.4566 45.4472 66.1277 45.8116C65.7988 46.1761 65.5988 46.7094 65.5277 47.4116ZM72.5667 52.1716V44.1716H74.1933V45.585H74.5133C74.5667 45.345 74.6644 45.1094 74.8067 44.8783C74.9489 44.6472 75.1667 44.4605 75.46 44.3183C75.7622 44.1672 76.1711 44.0916 76.6867 44.0916H77.0333V45.745H76.54C75.7667 45.745 75.2111 45.945 74.8733 46.345C74.5356 46.745 74.3667 47.3539 74.3667 48.1716V52.1716H72.5667ZM81.376 52.3716C80.1583 52.3716 79.2294 51.9939 78.5894 51.2383C77.9494 50.4739 77.6294 49.4472 77.6294 48.1583C77.6294 47.305 77.7716 46.5672 78.056 45.945C78.3405 45.3227 78.7583 44.8383 79.3094 44.4916C79.8694 44.145 80.5494 43.9716 81.3494 43.9716C82.496 43.9716 83.3716 44.3316 83.976 45.0516C84.5805 45.7627 84.8827 46.8072 84.8827 48.185V48.6116H79.3894C79.4338 49.3405 79.6205 49.9272 79.9494 50.3716C80.2872 50.8161 80.7627 51.0383 81.376 51.0383C81.8383 51.0383 82.2072 50.905 82.4827 50.6383C82.7672 50.3716 82.9627 50.0294 83.0694 49.6116H84.7894C84.6916 50.1272 84.5049 50.5939 84.2294 51.0116C83.9627 51.4205 83.5938 51.7494 83.1227 51.9983C82.6516 52.2472 82.0694 52.3716 81.376 52.3716ZM79.4027 47.4116H83.1227C83.0872 46.7272 82.9138 46.1983 82.6027 45.825C82.3005 45.4516 81.8783 45.265 81.336 45.265C80.776 45.265 80.3316 45.4472 80.0027 45.8116C79.6738 46.1761 79.4738 46.7094 79.4027 47.4116ZM89.2417 52.3716C88.4239 52.3716 87.7617 52.2383 87.255 51.9716C86.7572 51.6961 86.3839 51.345 86.135 50.9183C85.895 50.4916 85.7617 50.0561 85.735 49.6116H87.4683C87.5039 49.8605 87.5928 50.0961 87.735 50.3183C87.8861 50.5405 88.0906 50.7183 88.3483 50.8516C88.6061 50.985 88.9306 51.0516 89.3217 51.0516C89.7661 51.0516 90.0994 50.9672 90.3217 50.7983C90.5439 50.6205 90.655 50.3894 90.655 50.105C90.655 49.865 90.5617 49.6605 90.375 49.4916C90.1883 49.3139 89.895 49.1539 89.495 49.0116L88.535 48.6916C88.0906 48.5316 87.6817 48.3583 87.3083 48.1716C86.9439 47.9761 86.6506 47.7316 86.4283 47.4383C86.215 47.1361 86.1083 46.7539 86.1083 46.2916C86.1083 45.5983 86.3661 45.0383 86.8817 44.6116C87.3972 44.185 88.1172 43.9716 89.0417 43.9716C89.7083 43.9716 90.255 44.0827 90.6817 44.305C91.1172 44.5183 91.4461 44.8116 91.6683 45.185C91.8906 45.5494 92.0194 45.9583 92.055 46.4116H90.3883C90.3439 46.0827 90.2061 45.8072 89.975 45.585C89.7528 45.3627 89.4194 45.2516 88.975 45.2516C88.5928 45.2516 88.2994 45.3316 88.095 45.4916C87.8994 45.6516 87.8017 45.865 87.8017 46.1316C87.8017 46.3983 87.8994 46.6205 88.095 46.7983C88.2994 46.9672 88.6061 47.1227 89.015 47.265L89.9617 47.5716C90.4061 47.7227 90.8106 47.8961 91.175 48.0916C91.5394 48.2783 91.8239 48.5227 92.0283 48.825C92.2417 49.1183 92.3483 49.4961 92.3483 49.9583C92.3483 50.6783 92.0817 51.2605 91.5483 51.705C91.0239 52.1494 90.255 52.3716 89.2417 52.3716Z" fill="#F8F8F8"/>
</svg>
