<svg width="35" height="35" viewBox="0 0 35 35" fill="none" xmlns="http://www.w3.org/2000/svg">
<path d="M7.58333 30.1716C6.80417 30.1716 6.13715 29.8942 5.58229 29.3393C5.02743 28.7845 4.75 28.1175 4.75 27.3383V7.50496C4.75 6.7258 5.02743 6.05878 5.58229 5.50392C6.13715 4.94906 6.80417 4.67163 7.58333 4.67163H27.4167C28.1958 4.67163 28.8628 4.94906 29.4177 5.50392C29.9726 6.05878 30.25 6.7258 30.25 7.50496V27.3383C30.25 28.1175 29.9726 28.7845 29.4177 29.3393C28.8628 29.8942 28.1958 30.1716 27.4167 30.1716H7.58333ZM7.58333 27.3383H27.4167V7.50496H7.58333V27.3383ZM13.3562 23.4425L17.5 20.9279L21.6437 23.4425L20.5458 18.732L24.2292 15.5445L19.3771 15.155L17.5 10.6925L15.6229 15.155L10.7708 15.5445L14.4542 18.732L13.3562 23.4425Z" fill="white"/>
</svg>
